<?xml version="1.0" standalone="no"?><!DOCTYPE svg PUBLIC "-//W3C//DTD SVG 1.1//EN" "http://www.w3.org/Graphics/SVG/1.1/DTD/svg11.dtd"><svg class="icon" width="200px" height="200.00px" viewBox="0 0 1024 1024" version="1.1" xmlns="http://www.w3.org/2000/svg"><path fill="#333333" d="M244.51083 812.295344c0 23.075555-16.553001 41.782615-36.97103 41.782615l0 0c-20.419052 0-36.97103-18.707061-36.97103-41.782615l0-645.675512c0-23.075555 16.553001-41.782615 36.97103-41.782615l0 0c20.419052 0 36.97103 18.707061 36.97103 41.782615L244.51083 812.295344zM416.947134 702.493565c0 24.375154-19.760043 44.135196-44.135196 44.135196l0 0c-24.375154 0-44.135196-19.760043-44.135196-44.135196l0-119.951953c0-24.375154 19.760043-44.135196 44.135196-44.135196l0 0c24.375154 0 44.135196 19.760043 44.135196 44.135196L416.947134 702.493565zM603.109044 702.493565c0 24.375154-19.760043 44.135196-44.135196 44.135196l0 0c-24.375154 0-44.135196-19.760043-44.135196-44.135196L514.838651 296.886711c0-24.375154 19.760043-44.135196 44.135196-44.135196l0 0c24.375154 0 44.135196 19.760043 44.135196 44.135196L603.109044 702.493565zM796.990776 702.493565c0 24.375154-19.760043 44.135196-44.135196 44.135196l0 0c-24.375154 0-44.135196-19.760043-44.135196-44.135196L708.720384 523.884678c0-24.375154 19.760043-44.135196 44.135196-44.135196l0 0c24.375154 0 44.135196 19.760043 44.135196 44.135196L796.990776 702.493565zM217.480196 854.076936c-23.075555 0-41.782615-15.854083-41.782615-35.411511l0 0c0-19.557428 18.707061-35.410488 41.782615-35.410488l625.209388 0c23.075555 0 41.782615 15.854083 41.782615 35.410488l0 0c0 19.557428-18.707061 35.411511-41.782615 35.411511L217.480196 854.076936z" /></svg>