<?xml version="1.0" standalone="no"?><!DOCTYPE svg PUBLIC "-//W3C//DTD SVG 1.1//EN" "http://www.w3.org/Graphics/SVG/1.1/DTD/svg11.dtd"><svg t="1586157121552" class="icon" viewBox="0 0 1024 1024" version="1.1" xmlns="http://www.w3.org/2000/svg" p-id="2010" xmlns:xlink="http://www.w3.org/1999/xlink" width="200" height="200"><defs><style type="text/css"></style></defs><path d="M596.138667 1024h-84.548267C92.535467 1023.829333 16.315733 1020.040533 8.738133 1017.7536 0.6144 1011.950933 0 940.6464 0 515.072V17.2032L12.219733 8.6016C20.411733 2.798933 27.579733 0 34.133333 0c7.304533 0 14.404267 3.584 21.7088 10.922667 10.9568 11.0592 11.400533 28.808533 11.400534 475.374933v470.152533h468.753066c402.432 0 464.6912 1.194667 475.9552 9.147734 6.997333 4.9152 11.332267 13.312 11.946667 23.04a32.631467 32.631467 0 0 1-9.898667 26.112c-8.772267 8.055467-63.488 9.250133-417.8944 9.250133z m-406.528-160.324267c-9.147733 0-17.646933-2.833067-22.186667-7.3728-4.846933-4.9152-8.977067-15.394133-8.977067-22.869333 0.136533-5.973333 22.2208-47.9232 82.500267-139.0592a14055.765333 14055.765333 0 0 1 85.128533-127.726933c8.123733-1.501867 54.340267-4.096 114.961067-5.768534l118.101333-3.2768 36.864-146.773333c21.162667-84.48 37.546667-146.261333 39.867734-152.234667 4.608-6.007467 57.275733-44.305067 129.194666-92.398933 92.330667-61.713067 128.785067-83.626667 149.6064-83.626667 7.953067 0 13.9264 3.072 22.084267 11.264 8.533333 8.6016 11.605333 14.165333 10.990933 19.8656-1.877333 18.0224-43.144533 46.933333-130.321066 104.106667a2145.962667 2145.962667 0 0 0-81.6128 55.944533c-35.6352 25.9072-36.795733 29.627733-37.410134 31.675734-1.774933 5.802667-20.411733 76.458667-41.540266 157.422933-23.995733 92.0576-39.867733 147.0464-50.107734 155.648-10.410667 8.704-27.579733 10.103467-122.5728 10.103467h-114.414933l-80.213333 118.3744C219.784533 849.92 209.92 861.866667 194.013867 863.4368a45.909333 45.909333 0 0 1-4.369067 0.238933z" p-id="2011"></path></svg>