<?xml version="1.0" standalone="no"?><!DOCTYPE svg PUBLIC "-//W3C//DTD SVG 1.1//EN" "http://www.w3.org/Graphics/SVG/1.1/DTD/svg11.dtd"><svg t="1586157491301" class="icon" viewBox="0 0 1024 1024" version="1.1" xmlns="http://www.w3.org/2000/svg" p-id="3410" xmlns:xlink="http://www.w3.org/1999/xlink" width="200" height="200"><defs><style type="text/css"></style></defs><path d="M252.928 245.5552h478.8224c16.384 0 29.696-13.1072 29.696-29.0816 0-15.9744-13.312-29.0816-29.696-29.0816H252.928c-16.384 0-29.696 13.1072-29.696 29.0816 0.2048 15.9744 13.5168 29.0816 29.696 29.0816zM252.928 381.952h478.8224c16.384 0 29.696-13.1072 29.696-29.0816 0-15.9744-13.312-29.0816-29.696-29.0816H252.928c-16.384 0-29.696 13.1072-29.696 29.0816 0.2048 15.9744 13.5168 29.0816 29.696 29.0816zM761.4464 512.8192c0-15.9744-13.312-29.0816-29.696-29.0816H252.928c-16.384 0-29.696 13.1072-29.696 29.0816 0 15.9744 13.312 29.0816 29.696 29.0816h478.8224c16.384 0 29.696-13.1072 29.696-29.0816z" fill="" p-id="3411"></path><path d="M788.2752 27.648H60.6208v849.92c0 66.1504 54.8864 120.2176 122.4704 120.2176h559.5136l8.3968-9.0112 158.1056-160.9728 1.8432-1.8432V147.8656c0-66.1504-55.0912-120.2176-122.6752-120.2176z m63.8976 120.2176v655.5648L718.2336 940.032h-534.528c-35.2256 0-63.6928-28.0576-63.6928-62.2592V86.016h674.816v-0.2048c31.9488 3.072 57.344 29.696 57.344 62.0544z" fill="" p-id="3412"></path><path d="M800.768 688.5376h-111.4112v0.6144c-39.1168 3.072-69.8368 35.2256-69.8368 74.3424v137.0112c0 15.9744 13.312 29.0816 29.696 29.0816s29.696-13.1072 29.696-29.0816v-137.0112c0-9.216 7.9872-16.7936 17.408-16.7936h104.448c16.384 0 29.696-13.1072 29.696-29.0816 0-15.9744-13.312-29.0816-29.696-29.0816z" fill="" p-id="3413"></path></svg>