<?xml version="1.0" standalone="no"?><!DOCTYPE svg PUBLIC "-//W3C//DTD SVG 1.1//EN" "http://www.w3.org/Graphics/SVG/1.1/DTD/svg11.dtd"><svg class="icon" width="200px" height="200.00px" viewBox="0 0 1024 1024" version="1.1" xmlns="http://www.w3.org/2000/svg"><path fill="#333333" d="M817.717332 907.789255c-5.628184 0-10.233062-4.604878-10.233062-10.233062l0-622.139469c0-5.628184-4.604878-10.233062-10.233062-10.233062l-61.398372 0c-5.628184 0-10.233062 4.604878-10.233062 10.233062l0 622.139469c0 5.628184-4.604878 10.233062-10.233062 10.233062l-88.776929 0c-5.628184 0-10.233062-4.604878-10.233062-10.233062L616.376721 138.812509c0-5.628184-4.604878-10.233062-10.233062-10.233062l-61.398372 0c-5.628184 0-10.233062 4.604878-10.233062 10.233062l0 758.743684c0 5.628184-4.604878 10.233062-10.233062 10.233062l-90.286306 0c-5.628184 0-10.233062-4.604878-10.233062-10.233062L423.759795 395.138432c0-5.628184-4.604878-10.233062-10.233062-10.233062l-61.398372 0c-5.628184 0-10.233062 4.604878-10.233062 10.233062l0 502.418784c0 5.628184-4.604878 10.233062-10.233062 10.233062l-62.415538 0c-5.628184 0-10.233062-4.604878-10.233062-10.233062L259.013637 522.233062c0-5.628184-4.604878-10.233062-10.233062-10.233062l-61.398372 0c-5.628184 0-10.233062 4.604878-10.233062 10.233062l0 375.323131c0 5.628184-4.604878 10.233062-10.233062 10.233062L74.222957 907.789255c-5.628184 0-10.233062 4.604878-10.233062 10.233062l0 30.699186c0 5.628184 4.604878 10.233062 10.233062 10.233062l875.004571 0c5.628184 0 10.233062-4.604878 10.233062-10.233062l0-30.699186c0-5.628184-4.604878-10.233062-10.233062-10.233062L817.717332 907.789255z" /></svg>