<?xml version="1.0" standalone="no"?><!DOCTYPE svg PUBLIC "-//W3C//DTD SVG 1.1//EN" "http://www.w3.org/Graphics/SVG/1.1/DTD/svg11.dtd"><svg class="icon" width="200px" height="200.00px" viewBox="0 0 1024 1024" version="1.1" xmlns="http://www.w3.org/2000/svg"><path fill="#333333" d="M769.79 414.69H256c-87.18 0-158.12-70.93-158.12-158.12S168.83 98.45 256 98.45h513.79c87.18 0 158.11 70.93 158.11 158.12S857 414.69 769.79 414.69zM256 162.45a94.12 94.12 0 0 0 0 188.24h513.79a94.12 94.12 0 0 0 0-188.24z"  /><path fill="#333333" d="M237.92 221.24m32 0l387.91 0q32 0 32 32l0 0q0 32-32 32l-387.91 0q-32 0-32-32l0 0q0-32 32-32Z"  /><path fill="#333333" d="M729.28 221.24m32 0l0.12 0q32 0 32 32l0 0q0 32-32 32l-0.12 0q-32 0-32-32l0 0q0-32 32-32Z"  /><path fill="#333333" d="M239.84 474m32 0l0.12 0q32 0 32 32l0 0q0 32-32 32l-0.12 0q-32 0-32-32l0 0q0-32 32-32Z"  /><path fill="#333333" d="M617.62 863.33H256a94.12 94.12 0 0 1 0-188.24h361.62v-64H256c-87.18 0-158.12 70.94-158.12 158.12S168.83 927.33 256 927.33h361.62zM769.79 611.09h-27.87v64h27.87a94.12 94.12 0 0 1 0 188.24h-27.87v64h27.87c87.18 0 158.11-70.93 158.11-158.12S857 611.09 769.79 611.09z"  /><path fill="#333333" d="M648.22 475.92m32.06 0l0 0q32.06 0 32.06 32.06l0 287.04q0 32.06-32.06 32.06l0 0q-32.06 0-32.06-32.06l0-287.04q0-32.06 32.06-32.06Z"  /><path fill="#333333" d="M648.22 862.67m32.06 0l0 0q32.06 0 32.06 32.06l0 0.24q0 32.06-32.06 32.06l0 0q-32.06 0-32.06-32.06l0-0.24q0-32.06 32.06-32.06Z"  /><path fill="#333333" d="M769.79 353.92H256c-87.18 0-158.12 70.93-158.12 158.12S168.83 670.15 256 670.15h361.7v-64H256a94.12 94.12 0 0 1 0-188.23h513.79a94.12 94.12 0 0 1 0 188.23h-27.87v64h27.87C857 670.15 927.9 599.22 927.9 512S857 353.92 769.79 353.92z"  /><path fill="#333333" d="M239.84 733.66m32 0l0.12 0q32 0 32 32l0 0q0 32-32 32l-0.12 0q-32 0-32-32l0 0q0-32 32-32Z"  /></svg>