<?xml version="1.0" standalone="no"?><!DOCTYPE svg PUBLIC "-//W3C//DTD SVG 1.1//EN" "http://www.w3.org/Graphics/SVG/1.1/DTD/svg11.dtd"><svg class="icon" width="200px" height="200.00px" viewBox="0 0 1024 1024" version="1.1" xmlns="http://www.w3.org/2000/svg"><path fill="#333333" d="M189.711248 275.621385l-42.97886 0c-11.879562 0-21.537526-9.641591-21.537526-21.521153 0-11.864212 9.657964-21.457708 21.537526-21.457708l42.97886 0c11.879562 0 21.441335 9.593496 21.441335 21.457708C211.152583 265.979794 201.590809 275.621385 189.711248 275.621385L189.711248 275.621385zM877.373013 275.621385l-515.746324 0c-11.879562 0-21.537526-9.641591-21.537526-21.521153 0-11.864212 9.657964-21.457708 21.537526-21.457708l515.746324 0c11.799744 0 21.441335 9.593496 21.441335 21.457708C898.814348 265.979794 889.172757 275.621385 877.373013 275.621385L877.373013 275.621385zM189.711248 533.494547l-42.97886 0c-11.879562 0-21.537526-9.641591-21.537526-21.521153 0-11.864212 9.657964-21.457708 21.537526-21.457708l42.97886 0c11.879562 0 21.441335 9.593496 21.441335 21.457708C211.152583 523.852956 201.590809 533.494547 189.711248 533.494547L189.711248 533.494547zM877.373013 533.494547l-515.746324 0c-11.879562 0-21.537526-9.641591-21.537526-21.521153 0-11.864212 9.657964-21.457708 21.537526-21.457708l515.746324 0c11.799744 0 21.441335 9.593496 21.441335 21.457708C898.814348 523.852956 889.172757 533.494547 877.373013 533.494547L877.373013 533.494547zM189.711248 791.367709l-42.97886 0c-11.879562 0-21.537526-9.641591-21.537526-21.521153 0-11.864212 9.657964-21.457708 21.537526-21.457708l42.97886 0c11.879562 0 21.441335 9.593496 21.441335 21.457708C211.152583 781.726118 201.590809 791.367709 189.711248 791.367709L189.711248 791.367709zM877.373013 791.367709l-515.746324 0c-11.879562 0-21.537526-9.641591-21.537526-21.521153 0-11.864212 9.657964-21.457708 21.537526-21.457708l515.746324 0c11.799744 0 21.441335 9.593496 21.441335 21.457708C898.814348 781.726118 889.172757 791.367709 877.373013 791.367709L877.373013 791.367709z" /></svg>