<?xml version="1.0" standalone="no"?><!DOCTYPE svg PUBLIC "-//W3C//DTD SVG 1.1//EN" "http://www.w3.org/Graphics/SVG/1.1/DTD/svg11.dtd"><svg class="icon" width="200px" height="200.00px" viewBox="0 0 1024 1024" version="1.1" xmlns="http://www.w3.org/2000/svg"><path fill="#333333" d="M879.849856 385.02485h-106.549958V256.5999S796.749889 0 512 0c0 0-258.287399 0-258.287399 258.112399v126.912451H144.137644a53.549979 53.549979 0 0 0-53.749979 53.012479v533.074792c0 29.087489 24.212491 52.887479 53.749979 52.887479H879.849856a53.549979 53.549979 0 0 0 53.749979-52.937479V437.974829a53.549979 53.549979 0 0 0-53.749979-52.937479z m-529.524793 0V258.099899S348.275064 96.062462 517.062498 96.062462c0 0 159.137438-4.999998 159.137438 159.999938v128.96245z m0 0" /></svg>