<?xml version="1.0" standalone="no"?><!DOCTYPE svg PUBLIC "-//W3C//DTD SVG 1.1//EN" "http://www.w3.org/Graphics/SVG/1.1/DTD/svg11.dtd"><svg class="icon" width="200px" height="200.00px" viewBox="0 0 1024 1024" version="1.1" xmlns="http://www.w3.org/2000/svg"><path fill="#333333" d="M460.8 728.064v65.536h102.4v-65.536a102.4 102.4 0 0 0 51.2-88.064 102.4 102.4 0 0 0-204.8 0 102.4 102.4 0 0 0 51.2 88.064z m307.2-344.064v-51.2a256 256 0 0 0-512 0v51.2a102.4 102.4 0 0 0-102.4 102.4v358.4a102.4 102.4 0 0 0 102.4 102.4h512a102.4 102.4 0 0 0 102.4-102.4v-358.4a102.4 102.4 0 0 0-102.4-102.4z m-409.6-51.2a153.6 153.6 0 0 1 307.2 0v51.2H358.4z m409.6 512H256v-358.4h512z"  /></svg>