<?xml version="1.0" standalone="no"?><!DOCTYPE svg PUBLIC "-//W3C//DTD SVG 1.1//EN" "http://www.w3.org/Graphics/SVG/1.1/DTD/svg11.dtd"><svg class="icon" width="200px" height="200.00px" viewBox="0 0 1024 1024" version="1.1" xmlns="http://www.w3.org/2000/svg"><path fill="#333333" d="M608.188 557.902 434.715 557.902c-161.213 0-292.327 131.238-292.327 292.602l0 17.361c0 84.354 129.017 84.354 292.327 84.354l173.474 0c156.884 0 292.356 0 292.356-84.354l0-17.361C900.545 689.171 769.397 557.902 608.188 557.902L608.188 557.902zM512.785 535.569c127.658 0 231.524-104.015 231.524-231.894 0-127.873-103.866-231.895-231.524-231.895-127.654 0-231.53 104.044-231.53 231.9C281.255 431.526 385.131 535.569 512.785 535.569L512.785 535.569zM512.785 535.569" /></svg>