<?xml version="1.0" standalone="no"?><!DOCTYPE svg PUBLIC "-//W3C//DTD SVG 1.1//EN" "http://www.w3.org/Graphics/SVG/1.1/DTD/svg11.dtd"><svg t="1586157830160" class="icon" viewBox="0 0 1024 1024" version="1.1" xmlns="http://www.w3.org/2000/svg" p-id="4155" xmlns:xlink="http://www.w3.org/1999/xlink" width="200" height="200"><defs><style type="text/css"></style></defs><path d="M205.86731572 907.5078125A64.68270876 64.68270876 0 0 1 141.18460695 842.48821451V390.71992088a64.51426414 64.51426414 0 0 1 64.51426414-64.51426414h64.51426415L464.42970613 155.73976875A48.34358735 48.34358735 0 0 1 509.40440196 116.66063211h2.35822383a49.18580964 49.18580964 0 0 1 47.50136427 39.58447048l192.36368014 170.12899875h66.19871028a64.51426414 64.51426414 0 0 1 64.51426414 64.34581954V842.48821451a64.51426414 64.51426414 0 0 1-64.51426414 65.01959799z m334.86777293-704.09823487a47.33291965 47.33291965 0 0 1-57.77648188 0l-141.15653589 122.62763527h340.42644366l-141.49342589-122.62763527z m293.09352402 187.31034325a16.84445527 16.84445527 0 0 0-16.00223218-16.84445526H205.86731572a16.84445527 16.84445527 0 0 0-16.84445527 16.84445526V842.48821451a16.84445527 16.84445527 0 0 0 16.84445527 16.84445527h611.95906477a15.83378835 15.83378835 0 0 0 16.00223218-16.84445526V390.71992088z" fill="#1B2C50" p-id="4156"></path><path d="M721.13920657 761.80327357H302.55448962a16.84445527 16.84445527 0 0 1-16.84445526-16.84445527v-16.84445603a16.84445527 16.84445527 0 0 1 16.84445526-16.84445526h418.58471695a16.84445527 16.84445527 0 0 1 16.84445526 16.84445526v16.84445603a16.84445527 16.84445527 0 0 1-16.84445526 16.84445526z" fill="#FE5A62" p-id="4157"></path><path d="M721.13920657 648.77697747H302.55448962a16.84445527 16.84445527 0 0 1-16.84445526-16.0022322v-16.84445526a16.84445527 16.84445527 0 0 1 16.84445526-16.84445604h418.58471695a16.84445527 16.84445527 0 0 1 16.84445526 16.84445604v16.84445526a16.84445527 16.84445527 0 0 1-16.84445526 16.0022322zM528.60708105 520.0853384H302.55448962a16.84445527 16.84445527 0 0 1-16.84445526-16.84445527v-16.00223218a16.84445527 16.84445527 0 0 1 16.84445526-16.84445603h226.05259143a16.84445527 16.84445527 0 0 1 16.84445526 16.84445602v16.00223219a16.84445527 16.84445527 0 0 1-16.84445526 16.84445527z" fill="#FE5A62" p-id="4158"></path></svg>