<?xml version="1.0" standalone="no"?><!DOCTYPE svg PUBLIC "-//W3C//DTD SVG 1.1//EN" "http://www.w3.org/Graphics/SVG/1.1/DTD/svg11.dtd"><svg t="1586158230008" class="icon" viewBox="0 0 1024 1024" version="1.1" xmlns="http://www.w3.org/2000/svg" p-id="5627" xmlns:xlink="http://www.w3.org/1999/xlink" width="200" height="200"><defs><style type="text/css"></style></defs><path d="M302.338 566.966l-114.282 231.35c-9.588 26.036 11.25 49.374 37.272 37.29l231.188-114.352c9.966-1.948 19.636-5.808 27.358-13.542L894.578 296.74c20.622-20.632 20.622-54.086 0-74.718l-93.348-93.404c-20.622-20.632-54.046-20.632-74.668 0L315.856 539.592c-7.716 7.732-11.582 17.402-13.518 27.374z m442.884-382.304c10.312-10.322 27.036-10.322 37.336 0l56.008 56.044c10.312 10.31 10.312 27.038 0 37.36l-56.008 56.044-91.992-94.746 54.656-54.702z m-93.996 94.068l93.996 92.738-298.684 298.886c-35.002-35.026-83.424-83.478-93.338-93.404l298.026-298.22z m-251.21 419.802l-142.758 86.476c-13.01 6.042-24.674-6.462-18.638-18.65l86.416-142.86 74.98 75.034z" p-id="5628"></path><path d="M884.046 405.714v425.192c0 29.182-28.848 53.456-58.004 53.456H192.408c-29.16 0-52.796-23.654-52.796-52.838V197.48c0-29.182 24.336-57.526 53.496-57.526h425.19V86.802H193.106c-58.324 0-106.302 52.312-106.302 110.678v634.042c0 58.366 47.284 105.674 105.604 105.674h633.636c58.316 0 111.152-47.938 111.152-106.292v-425.19h-53.15z" p-id="5629"></path></svg>