<?xml version="1.0" standalone="no"?><!DOCTYPE svg PUBLIC "-//W3C//DTD SVG 1.1//EN" "http://www.w3.org/Graphics/SVG/1.1/DTD/svg11.dtd"><svg class="icon" width="200px" height="200.00px" viewBox="0 0 1024 1024" version="1.1" xmlns="http://www.w3.org/2000/svg"><path fill="#333333" d="M1002.666667 906.666667h-32V149.333333c0-46.933333-38.4-85.333333-85.333334-85.333333h-85.333333c-46.933333 0-85.333333 38.4-85.333333 85.333333v757.333334h-64V341.333333c0-46.933333-38.4-85.333333-85.333334-85.333333h-85.333333c-46.933333 0-85.333333 38.4-85.333333 85.333333v565.333334h-64V533.333333c0-46.933333-38.4-85.333333-85.333334-85.333333h-85.333333c-46.933333 0-85.333333 38.4-85.333333 85.333333v373.333334H21.333333c-12.8 0-21.333333 8.533333-21.333333 21.333333s8.533333 21.333333 21.333333 21.333333h981.333334c12.8 0 21.333333-8.533333 21.333333-21.333333s-8.533333-21.333333-21.333333-21.333333zM757.333333 149.333333c0-23.466667 19.2-42.666667 42.666667-42.666666h85.333333c23.466667 0 42.666667 19.2 42.666667 42.666666v746.666667h-170.666667V149.333333z m-320 192c0-23.466667 19.2-42.666667 42.666667-42.666666h85.333333c23.466667 0 42.666667 19.2 42.666667 42.666666v554.666667h-170.666667V341.333333z m-320 192c0-23.466667 19.2-42.666667 42.666667-42.666666h85.333333c23.466667 0 42.666667 19.2 42.666667 42.666666v362.666667h-170.666667V533.333333z" /></svg>