<?xml version="1.0" standalone="no"?><!DOCTYPE svg PUBLIC "-//W3C//DTD SVG 1.1//EN" "http://www.w3.org/Graphics/SVG/1.1/DTD/svg11.dtd"><svg class="icon" width="200px" height="200.00px" viewBox="0 0 1024 1024" version="1.1" xmlns="http://www.w3.org/2000/svg"><path fill="#333333" d="M1021.246238 187.419786h-103.03759v-31.485894h71.551695v-65.097087A59.036052 59.036052 0 0 0 930.645577 32.194327V0.708433a90.600661 90.600661 0 0 1 90.836805 90.128372zM789.58877 1024H89.657338v-31.485894h697.963563a58.799908 58.799908 0 0 0 51.794297-58.091476l-0.551004-28.10116h0.551004V90.836805a89.026366 89.026366 0 0 1 21.331693-58.01276h-637.589361a58.721193 58.721193 0 0 0-51.558152 58.091475v743.696825h-31.485895V90.836805A90.285802 90.285802 0 0 1 220.796088 1.338151h700.56115l1.889153 31.485894a58.721193 58.721193 0 0 0-52.424014 58.17019v846.970559A90.443232 90.443232 0 0 1 790.533347 1024zM83.911162 1024h-1.731724A90.285802 90.285802 0 0 1 1.811692 934.42263v-53.053732h730.551465v53.053732a58.721193 58.721193 0 0 0 52.424014 58.091476l-1.810439 31.485894H124.449251zM33.297587 912.854793v21.567837a58.721193 58.721193 0 0 0 51.558152 58.091476h637.589361a89.41994 89.41994 0 0 1-21.331693-58.012761v-21.567837zM1021.246238 182.460758h-31.485895V90.836805a59.350911 59.350911 0 0 0-118.701822 0h-31.485894a90.836805 90.836805 0 0 1 181.673611 0zM787.306042 1024c-45.182258 0-86.58621-42.663387-86.586209-89.57737V874.442002h31.485894v60.138058c0 29.9116 26.76301 58.091475 55.100315 58.091475zM717.879645 835.399493l-68.639249-46.913983-68.63925 46.913983V692.689676h31.485894v83.044047l37.153356-25.346145 37.153355 25.346145V692.689676h31.485894v142.709817zM649.31911 731.259897A88.160504 88.160504 0 1 1 738.188047 643.020678a88.711507 88.711507 0 0 1-88.868937 88.239219z m0-144.835114a56.67461 56.67461 0 1 0 57.383043 56.595895 57.068184 57.068184 0 0 0-57.383043-56.595895zM633.497448 624.522715h31.485895v41.482666h-31.485895zM355.63443 151.211008h270.148974v31.485894H355.63443zM263.22333 255.508033h454.971174v31.485894h-454.971174zM263.22333 358.152049h454.971174v31.485894h-454.971174zM263.22333 460.796064h454.971174v31.485895h-454.971174zM263.22333 563.44008h270.463833v31.485894H263.22333zM263.22333 666.005381h179.627028v31.485894H263.22333z" /></svg>